<?xml version="1.0" encoding="UTF-8" standalone="no"?>
<!-- Created with Inkscape (http://www.inkscape.org/) -->

<svg
   width="24"
   height="24"
   viewBox="0 0 6.3499999 6.35"
   version="1.1"
   id="svg1"
   inkscape:version="1.4.3 (0d15f75042, 2025-12-25)"
   sodipodi:docname="circularity.svg"
   xmlns:inkscape="http://www.inkscape.org/namespaces/inkscape"
   xmlns:sodipodi="http://sodipodi.sourceforge.net/DTD/sodipodi-0.dtd"
   xmlns="http://www.w3.org/2000/svg"
   xmlns:svg="http://www.w3.org/2000/svg">
  <sodipodi:namedview
     id="namedview1"
     pagecolor="#ffffff"
     bordercolor="#000000"
     borderopacity="0.25"
     inkscape:showpageshadow="2"
     inkscape:pageopacity="0.0"
     inkscape:pagecheckerboard="0"
     inkscape:deskcolor="#d1d1d1"
     inkscape:document-units="mm"
     inkscape:zoom="17.633475"
     inkscape:cx="8.9318753"
     inkscape:cy="12.504625"
     inkscape:window-width="1920"
     inkscape:window-height="979"
     inkscape:window-x="360"
     inkscape:window-y="1440"
     inkscape:window-maximized="1"
     inkscape:current-layer="layer1" />
  <defs
     id="defs1" />
  <g
     inkscape:label="Layer 1"
     inkscape:groupmode="layer"
     id="layer1">
    <path
       id="path164"
       d="M 3.1791342,5.341276 C 2.5528159,5.341276 2.035018,5.1366373 1.6247072,4.7252929 1.2133628,4.3149821 1.0087242,3.7982178 1.0087242,3.175 c 0,-0.6252848 0.2046386,-1.1420491 0.615983,-1.5502929 C 2.035018,1.2143963 2.5528159,1.008724 3.1791342,1.008724 c 0.6252848,0 1.142049,0.2056723 1.5502926,0.6159831 0.407211,0.4082438 0.611849,0.9250081 0.611849,1.5502929 0,0.6232178 -0.204638,1.1399821 -0.611849,1.5502929 C 4.3211832,5.1366373 3.804419,5.341276 3.1791342,5.341276 Z m 0,-3.9935544 c -0.5270996,0 -0.9632487,0.1736326 -1.3105143,0.5208983 C 1.5213543,2.2138184 1.3477215,2.648934 1.3477215,3.175 c 0,0.523999 0.1736328,0.9591146 0.5208984,1.3063802 0.3472656,0.3472656 0.7834147,0.5208984 1.3105143,0.5208984 0.526066,0 0.9611816,-0.1715657 1.30638,-0.5167643 C 4.8296788,4.1382487 5.0022788,3.7020996 5.0022788,3.175 5.0022788,2.648934 4.8286458,2.2138184 4.4813803,1.8686199 4.1361817,1.5213542 3.7020997,1.3477216 3.1791342,1.3477216 Z m 0,0"
       style="fill:#000000;fill-opacity:1;fill-rule:nonzero;stroke:none;stroke-width:0.352778"
       aria-label="e" />
    <rect
       style="opacity:0.75;fill:none;stroke-width:0.264999"
       id="rect1"
       width="6.3499999"
       height="6.3499999"
       x="0"
       y="0" />
  </g>
</svg>
