<?xml version="1.0" encoding="UTF-8" standalone="no"?>
<!-- Created with Inkscape (http://www.inkscape.org/) -->

<svg
   width="24"
   height="24"
   viewBox="0 0 6.3499999 6.35"
   version="1.1"
   id="svg1"
   inkscape:version="1.4.3 (0d15f75042, 2025-12-25)"
   sodipodi:docname="concentricity.svg"
   xmlns:inkscape="http://www.inkscape.org/namespaces/inkscape"
   xmlns:sodipodi="http://sodipodi.sourceforge.net/DTD/sodipodi-0.dtd"
   xmlns="http://www.w3.org/2000/svg"
   xmlns:svg="http://www.w3.org/2000/svg">
  <sodipodi:namedview
     id="namedview1"
     pagecolor="#ffffff"
     bordercolor="#000000"
     borderopacity="0.25"
     inkscape:showpageshadow="2"
     inkscape:pageopacity="0.0"
     inkscape:pagecheckerboard="0"
     inkscape:deskcolor="#d1d1d1"
     inkscape:document-units="mm"
     inkscape:zoom="17.633475"
     inkscape:cx="9.1020063"
     inkscape:cy="11.937522"
     inkscape:window-width="1920"
     inkscape:window-height="979"
     inkscape:window-x="360"
     inkscape:window-y="1440"
     inkscape:window-maximized="1"
     inkscape:current-layer="layer1" />
  <defs
     id="defs1" />
  <g
     inkscape:label="Layer 1"
     inkscape:groupmode="layer"
     id="layer1">
    <path
       id="path162"
       d="M 3.1770671,5.3412759 C 2.5507488,5.3412759 2.032951,5.1376708 1.6226401,4.729427 1.2112957,4.3191161 1.0066571,3.8013183 1.0066571,3.175 c 0,-0.6252849 0.2046386,-1.1420491 0.615983,-1.5502929 C 2.032951,1.2143962 2.5507488,1.008724 3.1770671,1.008724 c 0.6252848,0 1.1420491,0.2056722 1.550293,0.6159831 0.4103109,0.4082438 0.6159828,0.925008 0.6159828,1.5502929 0,0.6263183 -0.2056719,1.1441161 -0.6159828,1.554427 -0.4082439,0.4082438 -0.9250082,0.6118489 -1.550293,0.6118489 z m 0,-3.9935544 c -0.523999,0 -0.9591145,0.1736326 -1.3063801,0.5208983 C 1.5234214,2.2138184 1.3497886,2.6489339 1.3497886,3.175 c 0,0.5239989 0.1736328,0.9591145 0.5208984,1.3063801 0.3472656,0.3472656 0.7823811,0.5208984 1.3063801,0.5208984 0.5260661,0 0.9611816,-0.1736328 1.30638,-0.5208984 C 4.8276122,4.1341145 5.0002115,3.6989989 5.0002115,3.175 5.0002115,2.6489339 4.8276122,2.2138184 4.4834471,1.8686198 4.1382487,1.5213541 3.7031332,1.3477215 3.1770671,1.3477215 Z m 0,3.3486325 C 2.738851,4.696354 2.3750489,4.5537271 2.0856609,4.2664062 1.79834,3.9770181 1.655713,3.6132161 1.655713,3.175 c 0,-0.4382162 0.142627,-0.7999512 0.4299479,-1.0872721 0.289388,-0.289388 0.6531901,-0.4340821 1.0914062,-0.4340821 0.4382161,0 0.7999512,0.1446941 1.0872722,0.4340821 0.2893879,0.2873209 0.4340818,0.6490559 0.4340818,1.0872721 0,0.4382162 -0.1446939,0.8020182 -0.4340818,1.0914062 C 3.9770183,4.5537271 3.6152832,4.696354 3.1770671,4.696354 Z m 0,-2.7037108 c -0.3420979,0 -0.6242512,0.1116211 -0.8474934,0.3348633 C 2.1063315,2.5507487 1.9947104,2.8339355 1.9947104,3.175 c 0,0.3389973 0.1116211,0.6221843 0.3348633,0.8474934 0.2253092,0.2232422 0.508496,0.3348633 0.8474934,0.3348633 0.3410645,0 0.6242513,-0.1116211 0.8474935,-0.3348633 C 4.2478028,3.7992512 4.3594239,3.5170979 4.3594239,3.175 4.3594239,2.8339355 4.2478028,2.5507487 4.0245606,2.3275065 3.8013184,2.1042643 3.5181316,1.9926432 3.1770671,1.9926432 Z m 0,0"
       style="fill:#000000;fill-opacity:1;fill-rule:nonzero;stroke:none;stroke-width:0.352778"
       aria-label="r" />
    <rect
       style="opacity:0.75;fill:none;stroke-width:0.264999"
       id="rect1"
       width="6.3499999"
       height="6.3499999"
       x="0"
       y="0" />
  </g>
</svg>
